<svg width="20" height="20" viewBox="0 0 20 20" fill="none" xmlns="http://www.w3.org/2000/svg">
<path d="M19.5283 4.44773C12.7425 3.09902 13.1818 3.16945 13.0281 3.19531C12.9789 3.20352 12.3767 3.32457 10.9729 3.60531C10.3844 1.90828 8.7698 0.686523 6.875 0.686523C4.97844 0.686523 3.36258 1.91059 2.77543 3.61012L0.700156 3.19773C0.338437 3.12602 0 3.40254 0 3.77246V17.5225C0 17.802 0.197539 18.0427 0.471719 18.0971C7.20016 19.4345 6.75965 19.3482 6.80426 19.3536C6.94574 19.371 6.50848 19.4433 13.1254 18.1199L19.2998 19.3471C19.6618 19.419 20 19.142 20 18.7725V5.02246C20 4.74289 19.8025 4.50227 19.5283 4.44773ZM6.875 1.8584C8.61965 1.8584 10.0391 3.27777 10.0391 5.02246C10.0391 6.49445 7.68367 10.231 6.875 11.4673C6.06723 10.2323 3.71094 6.49477 3.71094 5.02246C3.71094 3.27777 5.13035 1.8584 6.875 1.8584ZM1.17188 4.48625L2.54727 4.75957C2.54203 4.84656 2.53906 4.93414 2.53906 5.02242C2.53906 5.99953 3.17824 7.57637 4.49316 9.84309C5.26098 11.1666 6.01789 12.303 6.28906 12.7033V18.0586L1.17188 17.0415V4.48625ZM7.46094 12.7033C7.73207 12.303 8.48902 11.1667 9.25684 9.84309C10.5718 7.57637 11.2109 5.99953 11.2109 5.02246C11.2109 4.93246 11.2079 4.84316 11.2024 4.75453L12.5391 4.48715V17.0421L7.46094 18.0577V12.7033ZM18.8281 18.0586L13.7109 17.0415V4.48629L18.8281 5.50336V18.0586Z" fill="#DDA046"/>
<path d="M6.875 6.8584C7.88734 6.8584 8.71094 6.03481 8.71094 5.02246C8.71094 4.01012 7.88734 3.18652 6.875 3.18652C5.86266 3.18652 5.03906 4.01012 5.03906 5.02246C5.03906 6.03481 5.86266 6.8584 6.875 6.8584ZM6.875 4.3584C7.24117 4.3584 7.53906 4.65629 7.53906 5.02246C7.53906 5.38863 7.24117 5.68652 6.875 5.68652C6.50883 5.68652 6.21094 5.38863 6.21094 5.02246C6.21094 4.65629 6.50883 4.3584 6.875 4.3584Z" fill="#DDA046"/>
</svg>
