<svg width="20" height="20" viewBox="0 0 20 20" fill="none" xmlns="http://www.w3.org/2000/svg">
<path d="M19.9847 7.74216C19.9847 7.71209 19.978 7.66666 19.9663 7.64048C19.9355 7.529 19.8672 7.42716 19.765 7.35607L16.902 5.36591V3.23248C16.902 2.94966 16.6726 2.72029 16.3898 2.72029H13.0961L10.2936 0.77193C10.1185 0.650016 9.88594 0.649508 9.71023 0.770914L6.88969 2.72029H3.61039C3.3275 2.72029 3.0982 2.94966 3.0982 3.23248V5.3408L0.221328 7.32912C0.0798047 7.42693 0.00324219 7.5833 0.000820312 7.74318C0.000664062 7.74619 0 7.74904 0 7.75216L0.0152734 18.8551C0.0154688 18.9909 0.0696094 19.1211 0.165742 19.217C0.261758 19.3128 0.391836 19.3665 0.527461 19.3665C0.527734 19.3665 0.52793 19.3665 0.528164 19.3665L19.4885 19.3405C19.7713 19.3401 20.0004 19.1104 20 18.8276L19.9847 7.74216ZM16.902 6.61353L18.5386 7.75095L16.902 8.88876V6.61353ZM10.0006 1.81572L11.3018 2.72025H8.69191L10.0006 1.81572ZM4.12258 3.74466H15.8776V9.60095L11.9309 12.3448L10.3217 11.0966C10.3192 11.0946 10.3171 11.0934 10.3146 11.0917C10.1348 10.9567 9.88043 10.9518 9.69379 11.0966L8.07297 12.3538L4.12258 9.62361V3.74466V3.74466ZM3.0982 6.58599V8.91568L1.41281 7.75087L3.0982 6.58599ZM1.0257 8.72912L7.22371 13.0125L1.0382 17.8103L1.0257 8.72912ZM2.02637 18.3401L10.0078 12.1494L17.9605 18.3182L2.02637 18.3401ZM12.7791 13.0027L18.9617 8.70443L18.9742 17.8083L12.7791 13.0027Z" fill="#DDA046"/>
</svg>
