<svg width="20" height="20" viewBox="0 0 20 20" fill="none" xmlns="http://www.w3.org/2000/svg">
<path d="M13.8828 19.4936H13.6422C12.3711 19.3867 11.1341 19.0362 10.0025 18.4623C7.5594 17.3058 5.39574 15.6582 3.65407 13.6282C2.32848 12.1357 1.27975 10.43 0.554841 8.58729C0.153847 7.64986 -0.0337468 6.63895 0.00497761 5.62416C0.0487371 4.90892 0.370443 4.23671 0.904754 3.74407C1.18281 3.48853 1.45149 3.22689 1.71705 2.96526C1.92325 2.76143 2.11383 2.59107 2.30753 2.4055C2.48876 2.21186 2.70949 2.05718 2.95561 1.95135C3.20172 1.84551 3.46781 1.79084 3.73686 1.79084C4.00591 1.79084 4.272 1.84551 4.51812 1.95135C4.76423 2.05718 4.98496 2.21186 5.16619 2.4055C5.54422 2.76752 5.91913 3.13563 6.29404 3.50678L6.63145 3.83534L7.38127 4.56851C7.58797 4.74581 7.75354 4.96393 7.86695 5.20837C7.98036 5.45281 8.03901 5.71796 8.03901 5.98619C8.03901 6.25442 7.98036 6.51957 7.86695 6.76401C7.75354 7.00845 7.58797 7.22657 7.38127 7.40386L7.04073 7.73546C6.74393 8.02447 6.45025 8.31349 6.15032 8.59945C6.43554 9.1801 6.79564 9.72296 7.22193 10.2149C8.15201 11.3674 9.27218 12.3615 10.5367 13.1567C10.6836 13.2449 10.8492 13.3271 11.0304 13.4122L11.1959 13.4913C11.6021 13.0867 12.0145 12.6882 12.4269 12.2897C12.6079 12.0936 12.8293 11.9369 13.0766 11.8296C13.324 11.7223 13.5917 11.6668 13.8625 11.6668C14.1332 11.6668 14.401 11.7223 14.6483 11.8296C14.8956 11.9369 15.117 12.0936 15.298 12.2897C16.0458 13.0097 16.7893 13.7337 17.5287 14.4618C17.7315 14.6398 17.8937 14.8573 18.0047 15.1002C18.1157 15.3431 18.173 15.606 18.173 15.8719C18.173 16.1377 18.1157 16.4006 18.0047 16.6435C17.8937 16.8864 17.7315 17.1039 17.5287 17.2819C17.385 17.4219 17.2382 17.5618 17.0914 17.7018C16.807 17.9725 16.5352 18.2281 16.2884 18.5019C15.9867 18.8289 15.6148 19.0873 15.199 19.2587C14.7833 19.4301 14.3339 19.5103 13.8828 19.4936ZM1.72642 8.16442C2.40173 9.87601 3.37748 11.4603 4.61008 12.8464C6.23904 14.7435 8.26209 16.2831 10.5461 17.3641C11.526 17.8755 12.6031 18.1861 13.7109 18.2768C14.0145 18.3118 14.3222 18.2748 14.6078 18.1688C14.8935 18.0628 15.1485 17.8911 15.3512 17.6683C15.6292 17.3641 15.926 17.0812 16.2166 16.8074C16.3572 16.6735 16.4977 16.5396 16.6383 16.4027C16.7269 16.3385 16.7988 16.2549 16.8484 16.1588C16.8979 16.0627 16.9237 15.9566 16.9237 15.8491C16.9237 15.7415 16.8979 15.6354 16.8484 15.5393C16.7988 15.4432 16.7269 15.3597 16.6383 15.2954C15.901 14.5693 15.1595 13.8473 14.4139 13.1293C14.3491 13.0473 14.2658 12.9808 14.1705 12.9351C14.0752 12.8894 13.9703 12.8656 13.864 12.8656C13.7578 12.8656 13.6529 12.8894 13.5576 12.9351C13.4622 12.9808 13.3789 13.0473 13.3142 13.1293C12.8455 13.5826 12.3769 14.0237 11.9426 14.474C11.8058 14.6275 11.6183 14.7297 11.4125 14.763C11.2066 14.7963 10.9952 14.7587 10.8148 14.6565C10.7023 14.5957 10.5867 14.5409 10.4742 14.4892C10.2774 14.3949 10.0743 14.2975 9.8744 14.185C8.49301 13.318 7.26933 12.2334 6.25342 10.9754C5.70615 10.346 5.25668 9.64188 4.91938 8.88542C4.8355 8.71552 4.81056 8.52368 4.84831 8.33879C4.88606 8.15389 4.98446 7.98593 5.1287 7.86019C5.47549 7.53468 5.81603 7.20307 6.15345 6.86843L6.49399 6.53379C6.88452 6.15047 6.88452 5.80365 6.49399 5.41121L5.75042 4.68412L5.40988 4.35252C5.0381 3.98441 4.66632 3.61934 4.29141 3.2634C4.226 3.18128 4.14216 3.11481 4.04632 3.06909C3.95047 3.02336 3.84515 2.99959 3.73842 2.99959C3.63169 2.99959 3.52638 3.02336 3.43053 3.06909C3.33468 3.11481 3.25085 3.18128 3.18544 3.2634C2.99173 3.44593 2.8074 3.62847 2.61995 3.811C2.34502 4.08176 2.06696 4.35252 1.78266 4.61415C1.46422 4.89894 1.27441 5.29484 1.25467 5.71543C1.2306 6.54938 1.38818 7.37884 1.71705 8.14921L1.72642 8.16442ZM20 9.70074H18.7503C18.747 7.45788 17.8306 5.30782 16.2019 3.72188C14.5732 2.13594 12.3652 1.24354 10.0618 1.24033V0.0234375C12.6966 0.0266576 15.2225 1.04726 17.0855 2.86141C18.9486 4.67556 19.9967 7.13515 20 9.70074ZM16.6727 9.70074H15.423C15.4214 8.31668 14.856 6.98978 13.8509 6.0111C12.8459 5.03243 11.4832 4.4819 10.0618 4.48029V3.2634C11.8144 3.26582 13.4945 3.94481 14.7337 5.15152C15.9729 6.35823 16.6702 7.99419 16.6727 9.70074Z" fill="#DDA046"/>
</svg>
